<?xml version="1.0" encoding="UTF-8"?>
<!-- Generated by Pixelmator Pro 3.6.17 -->
<svg width="1920" height="1080" viewBox="0 0 1920 1080" xmlns="http://www.w3.org/2000/svg">
    <g id="OBJECTS">
        <g id="Group">
            <radialGradient id="radialGradient1" cx="920.993359" cy="344.236868" r="725.153833" fx="920.993359" fy="344.236868" gradientUnits="userSpaceOnUse">
                <stop offset="0" stop-color="#b2e0f9" stop-opacity="1"/>
                <stop offset="1" stop-color="#3eb4e0" stop-opacity="1"/>
            </radialGradient>
            <path id="Path" fill="url(#radialGradient1)" stroke="none" d="M 1919.657471 1080 L 0.34315 1080 L 0.34315 0.496094 L 1919.657471 0.496094 L 1919.657471 1080 Z"/>
            <g id="g1">
                <path id="path1" fill="#d4edfc" stroke="none" d="M 824.014038 681.86731 C 824.014038 684.737305 821.687256 687.064026 818.817322 687.064026 C 815.947266 687.064026 813.620667 684.737305 813.620667 681.86731 C 813.620667 678.997314 815.947266 676.670593 818.817322 676.670593 C 821.687256 676.670593 824.014038 678.997314 824.014038 681.86731 Z"/>
                <path id="path2" fill="#d4edfc" stroke="none" d="M 853.791687 685.196411 C 853.791687 686.50769 852.728821 687.570801 851.417358 687.570801 C 850.105957 687.570801 849.042847 686.50769 849.042847 685.196411 C 849.042847 683.88501 850.105957 682.821899 851.417358 682.821899 C 852.728821 682.821899 853.791687 683.88501 853.791687 685.196411 Z"/>
                <path id="path3" fill="#d4edfc" stroke="none" d="M 821.60498 715.800232 C 821.60498 716.82019 820.778015 717.647095 819.758057 717.647095 C 818.738037 717.647095 817.911316 716.82019 817.911316 715.800232 C 817.911316 714.780457 818.738037 713.953491 819.758057 713.953491 C 820.778015 713.953491 821.60498 714.780457 821.60498 715.800232 Z"/>
                <path id="path4" fill="#d4edfc" stroke="none" d="M 745.09491 674.907043 C 745.09491 676.947021 743.441284 678.600586 741.401306 678.600586 C 739.361572 678.600586 737.707703 676.947021 737.707703 674.907043 C 737.707703 672.86731 739.361572 671.213501 741.401306 671.213501 C 743.441284 671.213501 745.09491 672.86731 745.09491 674.907043 Z"/>
                <path id="path5" fill="#d4edfc" stroke="none" d="M 725.044189 588.899414 C 725.044189 590.647949 723.626831 592.065308 721.878296 592.065308 C 720.129761 592.065308 718.712402 590.647949 718.712402 588.899414 C 718.712402 587.15094 720.129761 585.733521 721.878296 585.733521 C 723.626831 585.733521 725.044189 587.15094 725.044189 588.899414 Z"/>
                <path id="path6" fill="#d4edfc" stroke="none" d="M 680.193481 687.043091 C 680.193481 688.500122 679.012329 689.681396 677.555237 689.681396 C 676.098145 689.681396 674.916992 688.500122 674.916992 687.043091 C 674.916992 685.58606 676.098145 684.404785 677.555237 684.404785 C 679.012329 684.404785 680.193481 685.58606 680.193481 687.043091 Z"/>
                <path id="path7" fill="#d4edfc" stroke="none" d="M 837.171082 673.706299 C 837.171082 674.995239 836.126099 676.040039 834.837158 676.040039 C 833.548096 676.040039 832.503357 674.995239 832.503357 673.706299 C 832.503357 672.417358 833.548096 671.372559 834.837158 671.372559 C 836.126099 671.372559 837.171082 672.417358 837.171082 673.706299 Z"/>
                <path id="path8" fill="#d4edfc" stroke="none" d="M 789.975891 692.117676 C 789.975891 692.690369 789.511658 693.154785 788.938721 693.154785 C 788.365723 693.154785 787.901367 692.690369 787.901367 692.117676 C 787.901367 691.544678 788.365723 691.080261 788.938721 691.080261 C 789.511658 691.080261 789.975891 691.544678 789.975891 692.117676 Z"/>
                <path id="path9" fill="#d4edfc" stroke="none" d="M 864.139465 727.124756 C 864.139465 728.986511 862.63031 730.49585 860.768494 730.49585 C 858.906616 730.49585 857.397461 728.986511 857.397461 727.124756 C 857.397461 725.263062 858.906616 723.753662 860.768494 723.753662 C 862.63031 723.753662 864.139465 725.263062 864.139465 727.124756 Z"/>
                <path id="path10" fill="#d4edfc" stroke="none" d="M 820.056335 771.20813 C 820.056335 772.783447 818.779236 774.060547 817.203857 774.060547 C 815.62854 774.060547 814.35144 772.783447 814.35144 771.20813 C 814.35144 769.632813 815.62854 768.355713 817.203857 768.355713 C 818.779236 768.355713 820.056335 769.632813 820.056335 771.20813 Z"/>
                <path id="path11" fill="#d4edfc" stroke="none" d="M 737.07605 775.357178 C 737.07605 777.218872 735.566833 778.728271 733.704956 778.728271 C 731.843201 778.728271 730.333862 777.218872 730.333862 775.357178 C 730.333862 773.495239 731.843201 771.986084 733.704956 771.986084 C 735.566833 771.986084 737.07605 773.495239 737.07605 775.357178 Z"/>
                <path id="path12" fill="#d4edfc" stroke="none" d="M 844.431763 819.440247 C 844.431763 820.442871 843.61908 821.255493 842.616455 821.255493 C 841.614136 821.255493 840.801392 820.442871 840.801392 819.440247 C 840.801392 818.437866 841.614136 817.625244 842.616455 817.625244 C 843.61908 817.625244 844.431763 818.437866 844.431763 819.440247 Z"/>
                <path id="path13" fill="#d4edfc" stroke="none" d="M 914.446289 763.687988 C 914.446289 764.547363 913.749756 765.243835 912.890442 765.243835 C 912.031128 765.243835 911.334656 764.547363 911.334656 763.687988 C 911.334656 762.828735 912.031128 762.132202 912.890442 762.132202 C 913.749756 762.132202 914.446289 762.828735 914.446289 763.687988 Z"/>
                <path id="path14" fill="#d4edfc" stroke="none" d="M 893.701233 757.723755 C 893.701233 759.012695 892.65625 760.057678 891.367493 760.057678 C 890.078491 760.057678 889.033569 759.012695 889.033569 757.723755 C 889.033569 756.434814 890.078491 755.390015 891.367493 755.390015 C 892.65625 755.390015 893.701233 756.434814 893.701233 757.723755 Z"/>
                <path id="path15" fill="#d4edfc" stroke="none" d="M 914.964966 746.573242 C 914.964966 748.005554 913.803894 749.166443 912.371826 749.166443 C 910.939697 749.166443 909.778625 748.005554 909.778625 746.573242 C 909.778625 745.141235 910.939697 743.980103 912.371826 743.980103 C 913.803894 743.980103 914.964966 745.141235 914.964966 746.573242 Z"/>
                <path id="path16" fill="#d4edfc" stroke="none" d="M 903.036621 777.431641 C 903.036621 778.720459 901.991638 779.765381 900.702637 779.765381 C 899.413635 779.765381 898.368896 778.720459 898.368896 777.431641 C 898.368896 776.1427 899.413635 775.097778 900.702637 775.097778 C 901.991638 775.097778 903.036621 776.1427 903.036621 777.431641 Z"/>
                <path id="path17" fill="#d4edfc" stroke="none" d="M 941.933533 814.772766 C 941.933533 815.48877 941.352966 816.069153 940.636963 816.069153 C 939.920898 816.069153 939.340393 815.48877 939.340393 814.772766 C 939.340393 814.05658 939.920898 813.476196 940.636963 813.476196 C 941.352966 813.476196 941.933533 814.05658 941.933533 814.772766 Z"/>
                <path id="path18" fill="#d4edfc" stroke="none" d="M 903.555115 871.821655 C 903.555115 873.110596 902.510315 874.155396 901.221313 874.155396 C 899.932373 874.155396 898.887573 873.110596 898.887573 871.821655 C 898.887573 870.532654 899.932373 869.487671 901.221313 869.487671 C 902.510315 869.487671 903.555115 870.532654 903.555115 871.821655 Z"/>
                <path id="path19" fill="#d4edfc" stroke="none" d="M 1097.78064 763.169312 C 1096.77832 763.169312 1095.965454 762.356689 1095.965454 761.354126 C 1095.965454 760.351685 1096.77832 759.539001 1097.78064 759.539001 C 1098.783203 759.539001 1099.595947 760.351685 1099.595947 761.354126 C 1099.595947 762.356689 1098.783203 763.169312 1097.78064 763.169312 Z"/>
                <path id="path20" fill="#d4edfc" stroke="none" d="M 1136.418335 760.576172 C 1136.418335 761.721863 1135.489624 762.650635 1134.343872 762.650635 C 1133.19812 762.650635 1132.269409 761.721863 1132.269409 760.576172 C 1132.269409 759.43042 1133.19812 758.501648 1134.343872 758.501648 C 1135.489624 758.501648 1136.418335 759.43042 1136.418335 760.576172 Z"/>
                <path id="path21" fill="#d4edfc" stroke="none" d="M 1129.157593 734.904175 C 1129.157593 736.193115 1128.112671 737.238159 1126.82373 737.238159 C 1125.535034 737.238159 1124.490112 736.193115 1124.490112 734.904175 C 1124.490112 733.615356 1125.535034 732.570435 1126.82373 732.570435 C 1128.112671 732.570435 1129.157593 733.615356 1129.157593 734.904175 Z"/>
                <path id="path22" fill="#d4edfc" stroke="none" d="M 1114.636108 759.539001 C 1114.636108 759.825378 1114.403809 760.057678 1114.117432 760.057678 C 1113.831177 760.057678 1113.598755 759.825378 1113.598755 759.539001 C 1113.598755 759.252686 1113.831177 759.020386 1114.117432 759.020386 C 1114.403809 759.020386 1114.636108 759.252686 1114.636108 759.539001 Z"/>
                <path id="path23" fill="#d4edfc" stroke="none" d="M 1100.633301 796.620728 C 1100.633301 797.623291 1099.820313 798.435913 1098.817993 798.435913 C 1097.81543 798.435913 1097.002686 797.623291 1097.002686 796.620728 C 1097.002686 795.618286 1097.81543 794.805664 1098.817993 794.805664 C 1099.820313 794.805664 1100.633301 795.618286 1100.633301 796.620728 Z"/>
                <path id="path24" fill="#d4edfc" stroke="none" d="M 1144.197754 794.805664 C 1144.197754 796.524048 1142.804688 797.917297 1141.08606 797.917297 C 1139.367432 797.917297 1137.974121 796.524048 1137.974121 794.805664 C 1137.974121 793.087036 1139.367432 791.693726 1141.08606 791.693726 C 1142.804688 791.693726 1144.197754 793.087036 1144.197754 794.805664 Z"/>
                <path id="path25" fill="#d4edfc" stroke="none" d="M 1177.389771 753.05603 C 1177.389771 754.058594 1176.577148 754.871338 1175.574707 754.871338 C 1174.572144 754.871338 1173.759399 754.058594 1173.759399 753.05603 C 1173.759399 752.053589 1174.572144 751.240967 1175.574707 751.240967 C 1176.577148 751.240967 1177.389771 752.053589 1177.389771 753.05603 Z"/>
                <path id="path26" fill="#d4edfc" stroke="none" d="M 1120.340942 828.256958 C 1120.340942 831.264404 1117.902954 833.702576 1114.895386 833.702576 C 1111.887939 833.702576 1109.449707 831.264404 1109.449707 828.256958 C 1109.449707 825.249573 1111.887939 822.81134 1114.895386 822.81134 C 1117.902954 822.81134 1120.340942 825.249573 1120.340942 828.256958 Z"/>
                <path id="path27" fill="#d4edfc" stroke="none" d="M 1190.355591 781.839905 C 1190.355591 782.985596 1189.426636 783.914429 1188.281006 783.914429 C 1187.135376 783.914429 1186.206543 782.985596 1186.206543 781.839905 C 1186.206543 780.694214 1187.135376 779.765381 1188.281006 779.765381 C 1189.426636 779.765381 1190.355591 780.694214 1190.355591 781.839905 Z"/>
                <path id="path28" fill="#d4edfc" stroke="none" d="M 1151.458496 729.717957 C 1151.458496 730.720459 1150.645996 731.533081 1149.643311 731.533081 C 1148.640869 731.533081 1147.828247 730.720459 1147.828247 729.717957 C 1147.828247 728.715393 1148.640869 727.90271 1149.643311 727.90271 C 1150.645996 727.90271 1151.458496 728.715393 1151.458496 729.717957 Z"/>
                <path id="path29" fill="#d4edfc" stroke="none" d="M 1131.75061 707.67627 C 1131.75061 709.967651 1129.893188 711.825317 1127.601685 711.825317 C 1125.310181 711.825317 1123.452637 709.967651 1123.452637 707.67627 C 1123.452637 705.384949 1125.310181 703.527344 1127.601685 703.527344 C 1129.893188 703.527344 1131.75061 705.384949 1131.75061 707.67627 Z"/>
                <path id="path30" fill="#d4edfc" stroke="none" d="M 1201.765137 601.358032 C 1201.765137 602.217285 1201.068726 602.913818 1200.209351 602.913818 C 1199.350098 602.913818 1198.653564 602.217285 1198.653564 601.358032 C 1198.653564 600.498657 1199.350098 599.802002 1200.209351 599.802002 C 1201.068726 599.802002 1201.765137 600.498657 1201.765137 601.358032 Z"/>
                <path id="path31" fill="#d4edfc" stroke="none" d="M 1168.573242 620.546997 C 1168.573242 621.692749 1167.644531 622.621582 1166.498779 622.621582 C 1165.352905 622.621582 1164.424316 621.692749 1164.424316 620.546997 C 1164.424316 619.401367 1165.352905 618.472534 1166.498779 618.472534 C 1167.644531 618.472534 1168.573242 619.401367 1168.573242 620.546997 Z"/>
                <path id="path32" fill="#d4edfc" stroke="none" d="M 1194.504517 574.389404 C 1194.504517 574.962158 1194.040039 575.426514 1193.467163 575.426514 C 1192.894409 575.426514 1192.430054 574.962158 1192.430054 574.389404 C 1192.430054 573.816406 1192.894409 573.352051 1193.467163 573.352051 C 1194.040039 573.352051 1194.504517 573.816406 1194.504517 574.389404 Z"/>
                <path id="path33" fill="#d4edfc" stroke="none" d="M 1185.169312 607.062866 C 1185.169312 607.92218 1184.472534 608.618652 1183.613403 608.618652 C 1182.754028 608.618652 1182.057495 607.92218 1182.057495 607.062866 C 1182.057495 606.203552 1182.754028 605.507019 1183.613403 605.507019 C 1184.472534 605.507019 1185.169312 606.203552 1185.169312 607.062866 Z"/>
                <path id="path34" fill="#d4edfc" stroke="none" d="M 1204.877197 640.77356 C 1204.877197 642.778442 1203.251709 644.403931 1201.246704 644.403931 C 1199.241699 644.403931 1197.616211 642.778442 1197.616211 640.77356 C 1197.616211 638.768555 1199.241699 637.143127 1201.246704 637.143127 C 1203.251709 637.143127 1204.877197 638.768555 1204.877197 640.77356 Z"/>
                <path id="path35" fill="#d4edfc" stroke="none" d="M 1258.814209 605.247559 C 1258.814209 607.68219 1256.840454 609.656006 1254.405884 609.656006 C 1251.971313 609.656006 1249.997559 607.68219 1249.997559 605.247559 C 1249.997559 602.812866 1251.971313 600.839355 1254.405884 600.839355 C 1256.840454 600.839355 1258.814209 602.812866 1258.814209 605.247559 Z"/>
                <path id="path36" fill="#d4edfc" stroke="none" d="M 1218.879883 682.26355 C 1218.879883 683.695801 1217.718994 684.85675 1216.286743 684.85675 C 1214.854614 684.85675 1213.693848 683.695801 1213.693848 682.26355 C 1213.693848 680.831543 1214.854614 679.670654 1216.286743 679.670654 C 1217.718994 679.670654 1218.879883 680.831543 1218.879883 682.26355 Z"/>
            </g>
            <g id="g2" opacity="0.51">
                <path id="path37" fill="#ffffff" stroke="none" d="M 713.473816 267.308899 L 868.611145 267.308899 C 868.611145 267.308899 846.482605 234.690796 813.055298 253.682007 C 798.672913 229.47522 765.206116 245.122192 763.46759 261.20343 C 740.432129 250.7724 713.473816 267.308899 713.473816 267.308899 Z"/>
                <path id="path38" fill="#ffffff" stroke="none" d="M 1162.831543 205.554626 L 1317.968872 205.554626 C 1317.968872 205.554626 1295.840332 172.936646 1262.412964 191.927734 C 1248.03064 167.721069 1214.563965 183.367798 1212.825439 199.44928 C 1189.789795 189.018127 1162.831543 205.554626 1162.831543 205.554626 Z"/>
                <path id="path39" fill="#ffffff" stroke="none" d="M 1088.71814 163.948547 L 1170.610474 163.948547 C 1170.610474 163.948547 1158.929443 146.730408 1141.28418 156.755249 C 1133.692261 143.977295 1116.026123 152.236694 1115.108521 160.725647 C 1102.948608 155.219299 1088.71814 163.948547 1088.71814 163.948547 Z"/>
                <path id="path40" fill="#ffffff" stroke="none" d="M 1321.04895 106.003113 L 1381.897461 106.003113 C 1381.897461 106.003113 1378.15332 88.227234 1357.558105 100.787659 C 1350.604004 87.314026 1329.741699 89.052612 1321.04895 106.003113 Z"/>
                <path id="path41" fill="#ffffff" stroke="none" d="M 738.871216 143.856079 L 831.647949 143.856079 C 831.647949 143.856079 825.137268 125.409241 805.605469 137.345398 C 800.179932 112.387878 770.058716 114.290039 767.911011 136.260254 C 760.12561 127.444458 741.065002 138.988342 738.871216 143.856079 Z"/>
                <path id="path42" fill="#ffffff" stroke="none" d="M 574.858826 206.657654 L 655.156921 206.657654 C 655.156921 206.657654 647.561035 181.157593 630.741882 197.976746 C 620.433411 165.423584 596.561035 181.700317 592.763245 199.061951 C 585.167358 193.09375 574.858826 206.657654 574.858826 206.657654 Z"/>
            </g>
            <g id="g3">
                <path id="path43" fill="#ffffff" stroke="none" d="M 720.949646 387.220398 L 755.285889 330.373718 L 759.101074 342.924194 L 843.797119 239.566589 L 883.474487 269.835693 L 972.74884 131.041199 L 1051.340454 240.304932 L 1064.31189 234.398804 L 1075.757324 277.218384 L 1093.307007 266.882507 L 1170.372803 379.099365 L 1187.922363 370.240112 L 1216.91748 393.126404 L 1166.557861 593.935303 L 1157.401367 585.07605 L 1134.510498 676.621216 L 1124.591064 669.976807 L 1102.463379 743.803589 L 1084.150757 722.39386 L 1042.184204 946.08905 L 939.175476 763.736816 L 929.256165 773.334351 L 912.469543 730.514832 L 893.393799 748.971436 L 856.768494 638.231445 L 761.390198 655.949707 L 731.736206 452.80127 L 715.732605 451.610107 L 703.400024 407.153503 L 720.949646 387.220398 Z"/>
                <g id="g4">
                    <path id="path44" fill="#b2e0f9" stroke="none" d="M 759.216675 342.783081 L 759.101074 342.924194 L 755.285889 330.373718 L 748.288757 341.95813 L 775.369446 414.283813 L 759.216675 342.783081 Z"/>
                    <path id="path45" fill="#b2e0f9" stroke="none" d="M 960.519348 173.373169 L 949.31604 167.472168 L 883.860046 269.236206 L 909.975525 335.131226 L 960.519348 173.373169 Z"/>
                    <path id="path46" fill="#b2e0f9" stroke="none" d="M 973.444275 132.008362 L 972.74884 131.04126 L 949.31604 167.472168 L 960.519348 173.373169 L 973.444275 132.008362 Z"/>
                    <path id="path47" fill="#b2e0f9" stroke="none" d="M 1029.228394 209.56311 L 973.444275 132.008362 L 960.519348 173.373169 L 1029.228394 209.56311 Z"/>
                    <path id="path48" fill="#b2e0f9" stroke="none" d="M 1183.89563 524.80072 L 1212.833252 409.412109 L 1095.270752 385.273865 L 1183.89563 524.80072 Z"/>
                    <path id="path49" fill="#b2e0f9" stroke="none" d="M 710.531433 432.860596 L 715.732605 451.610107 L 730.937866 452.741699 L 828.221619 412.43811 L 710.531433 432.860596 Z"/>
                    <path id="path50" fill="#b2e0f9" stroke="none" d="M 1187.194702 370.607483 L 1170.372803 379.099365 L 1169.716064 378.143188 L 1165.02832 395.15271 L 1187.194702 370.607483 Z"/>
                    <path id="path51" fill="#b2e0f9" stroke="none" d="M 1063.954224 234.561646 L 1052.186401 239.9198 L 1041.849976 318.261658 L 1063.954224 234.561646 Z"/>
                    <path id="path52" fill="#b2e0f9" stroke="none" d="M 1110.797852 292.351135 L 1093.307007 266.882568 L 1075.757446 277.218384 L 1075.688354 276.960144 L 1056.215698 357.890137 L 1110.797852 292.351135 Z"/>
                    <path id="path53" fill="#b2e0f9" stroke="none" d="M 820.063171 268.53009 L 766.029724 334.469055 L 863.096985 332.114441 L 820.063171 268.53009 Z"/>
                    <path id="path54" fill="#b2e0f9" stroke="none" d="M 753.201843 599.85376 L 761.390198 655.949707 L 761.76886 655.879456 L 901.294983 521.27655 L 753.201843 599.85376 Z"/>
                    <path id="path55" fill="#b2e0f9" stroke="none" d="M 1120.14502 636.312622 L 1022.352295 447.073914 L 1088.111084 727.023926 L 1102.463379 743.803589 L 1124.591309 669.976807 L 1134.510498 676.621216 L 1147.212158 625.824768 L 1121.77478 574.284424 L 1120.14502 636.312622 Z"/>
                    <path id="path56" fill="#b2e0f9" stroke="none" d="M 1048.430298 839.744385 L 987.581482 638.940979 L 979.43219 816.089661 L 969.10968 770.356812 L 963.13324 785.601074 L 945.747986 707.277344 L 938.294861 764.589111 L 939.175476 763.736816 L 1042.184204 946.08905 L 1068.059204 808.166504 L 1049.516846 779.293213 L 1048.430298 839.744385 Z"/>
                    <path id="path57" fill="#b2e0f9" stroke="none" d="M 915.323547 672.583435 L 922.386292 620.542725 L 871.601563 683.080566 L 893.393982 748.971436 L 912.469543 730.514832 L 926.937073 767.418457 L 930.535767 664.698669 L 915.323547 672.583435 Z"/>
                    <path id="path58" fill="#b2e0f9" stroke="none" d="M 1013.430725 304.912964 L 1025.1427 263.362732 L 922.988892 353.388123 L 1013.430725 304.912964 Z"/>
                    <path id="path59" fill="#b2e0f9" stroke="none" d="M 1117.957642 328.908081 L 1102.369263 319.740173 L 1072.415405 355.819824 L 1104.203247 325.35907 L 1117.957642 328.908081 Z"/>
                    <path id="path60" fill="#b2e0f9" stroke="none" d="M 811.250183 339.002808 L 825.789063 353.773499 L 864.317444 337.947693 L 811.250183 339.002808 Z"/>
                    <path id="path61" fill="#b2e0f9" stroke="none" d="M 931.852844 444.575439 L 933.62439 564.126343 L 974.368225 409.867126 L 778.620239 466.428955 L 931.852844 444.575439 Z"/>
                </g>
                <path id="path62" fill="#90d4f6" stroke="none" style="mix-blend-mode:multiply" d="M 1006.681274 608.222412 C 1001.04834 612.294312 995.415344 616.366272 989.782288 620.438232 C 989.617004 614.882324 989.451416 609.326538 989.28595 603.770874 C 979.037048 605.508179 969.37439 610.351563 961.995789 617.449707 C 959.269043 595.742188 958.69574 573.781982 960.286072 551.969055 C 944.057678 567.427856 927.829224 582.886597 911.600708 598.345337 C 914.00061 549.588867 916.927979 500.85675 920.382324 452.159424 C 898.334534 460.958008 876.286865 469.756287 854.239136 478.554932 C 860.148743 461.3396 869.463806 445.225159 881.530579 431.341736 C 853.482727 437.021423 825.434998 442.701111 797.387268 448.380737 C 809.533875 430.903137 875.294556 412.255554 875.294556 412.255554 L 843.059753 411.078613 L 895.669495 367.82605 L 858.97168 362.934326 L 922.734558 336.637268 L 957.098328 271.317139 C 957.098328 271.317139 915.407349 287.362854 910.266418 289.854004 C 928.208496 239.833862 951.058289 196.365906 962.925537 146.313171 L 883.474487 269.835693 L 843.797119 239.56665 L 759.101074 342.924194 L 755.285889 330.373718 L 720.949646 387.220398 L 703.400024 407.153503 L 715.732605 451.610107 L 731.73645 452.80127 L 761.390198 655.949707 L 856.768494 638.231201 L 893.393982 748.971436 L 912.469543 730.514832 L 929.256165 773.334351 L 939.175476 763.736816 L 1038.664307 939.85791 C 1030.286865 840.504333 1021.909119 741.150696 1013.531677 641.79718 C 1012.567871 630.368347 1011.538025 618.682068 1006.681274 608.222412 Z"/>
                <path id="path63" fill="#3eb4e0" stroke="none" d="M 1075.757446 277.218384 L 1069.430298 331.739807 L 1056.215698 357.890137 C 1056.215698 357.890137 1075.757446 277.218384 1075.757446 277.218384 Z"/>
                <path id="path64" fill="#3eb4e0" stroke="none" d="M 1013.430725 304.912964 L 968.927368 340.765198 L 922.988892 353.388123 L 1013.430725 304.912964 Z"/>
                <path id="path65" fill="#3eb4e0" stroke="none" d="M 885.462341 369.655457 L 840.526978 364.824829 L 874.05011 377.246826 L 885.462341 369.655457 Z"/>
                <path id="path66" fill="#3eb4e0" stroke="none" d="M 883.322632 278.560242 L 901.86731 331.009216 L 858.715149 274.419617 L 881.539368 293.052734 L 883.322632 278.560242 Z"/>
                <path id="path67" fill="#3eb4e0" stroke="none" d="M 769.557556 362.409363 L 762.781616 344.811401 L 765.634644 339.980652 L 804.507141 339.980652 L 770.983948 346.536621 L 769.557556 362.409363 Z"/>
                <path id="path68" fill="#3eb4e0" stroke="none" d="M 1025.266968 221.552612 L 1038.0625 243.733826 L 1001.542114 273.136902 L 1029.798828 242.702087 L 1025.266968 221.552612 Z"/>
                <path id="path69" fill="#3eb4e0" stroke="none" d="M 1022.867859 241.670471 L 1003.674683 263.335754 L 1008.206482 250.181885 L 1022.867859 241.670471 Z"/>
                <path id="path70" fill="#3eb4e0" stroke="none" d="M 1043.927002 273.652649 L 1037.262695 333.748291 L 1036.729492 283.19574 L 1043.927002 273.652649 Z"/>
                <path id="path71" fill="#b2e0f9" stroke="none" d="M 1084.62207 379.589355 L 1119.138672 437.144958 L 1072.871704 388.826721 L 1074.707886 365.022766 L 1084.62207 379.589355 Z"/>
                <path id="path72" fill="#b2e0f9" stroke="none" d="M 1068.465454 374.260071 L 1065.160645 387.40564 L 1059.285522 372.483643 L 1068.465454 374.260071 Z"/>
            </g>
            <radialGradient id="radialGradient2" cx="1004.284477" cy="453.274225" r="1635.060739" fx="1004.284477" fy="453.274225" gradientUnits="userSpaceOnUse">
                <stop offset="0" stop-color="#00afd6" stop-opacity="0.7"/>
                <stop offset="1" stop-color="#054b79" stop-opacity="1"/>
            </radialGradient>
            <path id="path73" fill="url(#radialGradient2)" stroke="none" style="mix-blend-mode:multiply" d="M 1919.645142 1080 L 0.330767 1079.916382 L 0.354836 398.817871 L 1919.669189 398.901428 L 1919.645142 1080 Z"/>
            <linearGradient id="linearGradient1" x1="1216.062473" y1="429.838215" x2="1158.613641" y2="962.767101" gradientUnits="userSpaceOnUse">
                <stop offset="0" stop-color="#00afd6" stop-opacity="0.7"/>
                <stop offset="1" stop-color="#00629c" stop-opacity="1"/>
            </linearGradient>
            <path id="path74" fill="url(#linearGradient1)" stroke="none" style="mix-blend-mode:multiply" d="M 715.732605 451.610107 L 731.73645 452.801086 L 761.390015 655.949707 L 856.768677 638.231201 L 893.393982 748.971436 L 912.46936 730.514832 L 929.256165 773.334351 L 939.175476 763.736816 L 1042.18396 946.08905 L 1084.151001 722.393677 L 1102.463257 743.803589 L 1124.591309 669.976807 L 1134.510498 676.621216 L 1157.401245 585.07605 L 1166.557861 593.935181 L 1215.47168 398.892639 L 710.673157 398.892639 L 703.400024 407.153564 L 715.732605 451.610107 Z"/>
            <radialGradient id="radialGradient3" cx="1172.056454" cy="498.370931" r="195.168222" fx="1172.056454" fy="498.370931" gradientUnits="userSpaceOnUse">
                <stop offset="0" stop-color="#ffffff" stop-opacity="1"/>
                <stop offset="1" stop-color="#ffffff" stop-opacity="0"/>
            </radialGradient>
            <path id="path75" fill="url(#radialGradient3)" stroke="none" opacity="0.46" d="M 1378.956055 498.370911 C 1378.956055 506.028076 1286.324097 512.235413 1172.056396 512.235413 C 1057.78894 512.235413 965.156616 506.028076 965.156616 498.370911 C 965.156616 490.713989 1057.78894 484.506653 1172.056396 484.506653 C 1286.324097 484.506653 1378.956055 490.713989 1378.956055 498.370911 Z"/>
            <radialGradient id="radialGradient4" cx="766.371937" cy="461.091882" r="108.964813" fx="766.371937" fy="461.091882" gradientUnits="userSpaceOnUse">
                <stop offset="0" stop-color="#ffffff" stop-opacity="1"/>
                <stop offset="1" stop-color="#ffffff" stop-opacity="0"/>
            </radialGradient>
            <path id="path76" fill="url(#radialGradient4)" stroke="none" opacity="0.46" d="M 881.886475 461.091858 C 881.886475 465.367004 830.168823 468.83252 766.371887 468.83252 C 702.575073 468.83252 650.857422 465.367004 650.857422 461.091858 C 650.857422 456.816772 702.575073 453.351135 766.371887 453.351135 C 830.168823 453.351135 881.886475 456.816772 881.886475 461.091858 Z"/>
            <radialGradient id="radialGradient5" cx="888.077389" cy="548.807395" r="199.982906" fx="888.077389" fy="548.807395" gradientUnits="userSpaceOnUse">
                <stop offset="0" stop-color="#ffffff" stop-opacity="1"/>
                <stop offset="1" stop-color="#ffffff" stop-opacity="0"/>
            </radialGradient>
            <path id="path77" fill="url(#radialGradient5)" stroke="none" opacity="0.46" d="M 1100.080933 548.807434 C 1100.080933 556.653503 1005.163757 563.013855 888.077393 563.013855 C 770.990967 563.013855 676.073547 556.653503 676.073547 548.807434 C 676.073547 540.961487 770.990967 534.600952 888.077393 534.600952 C 1005.163757 534.600952 1100.080933 540.961487 1100.080933 548.807434 Z"/>
        </g>
    </g>
</svg>
